<mxfile host="app.diagrams.net" modified="2024-01-29T17:38:07.365Z" agent="Mozilla/5.0 (Macintosh; Intel Mac OS X 10_15_7) AppleWebKit/537.36 (KHTML, like Gecko) Chrome/120.0.0.0 Whale/3.24.223.18 Safari/537.36" version="23.0.1" etag="Z0yhvtSlGYZDmD-sItga" type="github">
  <diagram name="페이지-1" id="CwAUzYBDm4NGoXd9SNC2">
    <mxGraphModel>
      <root>
        <mxCell id="0" />
        <mxCell id="1" parent="0" />
      </root>
    </mxGraphModel>
  </diagram>
</mxfile>
